<svg width="16" height="24" viewBox="0 0 16 24" fill="none" xmlns="http://www.w3.org/2000/svg">
<g id="ETH">
<g id="eth">
<path id="Shape" d="M8.03536 0.129977V0.1418C8.04719 0.200913 8.04719 0.271849 8.04719 0.342785V8.86692C8.03536 8.91422 7.9999 8.92604 7.96443 8.94968C7.71615 9.06791 7.4797 9.17431 7.23142 9.28072C6.88857 9.43441 6.53389 9.59993 6.19103 9.75362L4.94965 10.3211C4.60679 10.4748 4.26394 10.6285 3.9329 10.7822C3.53093 10.9714 3.11714 11.1487 2.71517 11.3379C2.37231 11.4916 2.02945 11.6571 1.67477 11.8108C1.39103 11.9408 1.10729 12.059 0.835365 12.1891C0.81172 12.2009 0.788074 12.2127 0.764429 12.2127C0.752606 12.2127 0.752606 12.2127 0.740784 12.2009L1.06 11.6689C1.67477 10.6521 2.27773 9.64722 2.89251 8.63047C3.54275 7.54279 4.20482 6.4551 4.85507 5.36742C5.45802 4.36249 6.0728 3.35756 6.67576 2.35264C7.1132 1.61963 7.56246 0.886627 7.9999 0.153622C8.01172 0.129977 8.02354 0.118154 8.02354 0.0945091H8.03536C8.02354 0.106332 8.03536 0.118154 8.03536 0.129977Z" fill="#8A92B2"/>
<path id="Shape_2" d="M15.2946 12.201L15.3064 12.2128L13.5685 13.2414L8.10642 16.469C8.08278 16.4808 8.05913 16.4926 8.04731 16.5044C8.01184 16.5044 8.01184 16.469 8.01184 16.4571V16.3507V9.04433C8.01184 9.00886 8.01184 8.96157 8.02366 8.9261C8.03549 8.87881 8.07095 8.89064 8.10642 8.90246C8.26012 8.97339 8.42563 9.04433 8.57933 9.11527C9.04041 9.32807 9.5015 9.54088 9.96258 9.74187C10.3646 9.91921 10.7547 10.1084 11.1567 10.2857C11.5586 10.463 11.9606 10.6522 12.3626 10.8296C12.7054 10.9832 13.0601 11.1488 13.403 11.3025C13.7458 11.4562 14.1005 11.6217 14.4434 11.7754C14.7153 11.8936 14.9872 12.0236 15.2591 12.1419C15.2591 12.1773 15.271 12.1892 15.2946 12.201Z" fill="#454A75"/>
<path id="Shape_3" d="M8.03549 23.8463C8.03549 23.8581 8.02367 23.8699 8.02367 23.8818H8.01184C8.01184 23.8581 7.9882 23.8463 7.97638 23.8227C7.24337 22.7941 6.51037 21.7537 5.77736 20.7251C5.03253 19.6729 4.27588 18.6089 3.53105 17.5566C2.80987 16.5399 2.07687 15.5113 1.35568 14.4946C1.16652 14.2226 0.977359 13.9625 0.788196 13.6906C0.776374 13.667 0.764551 13.6552 0.740906 13.6197C0.776374 13.6197 0.800019 13.6433 0.811842 13.6552C1.84041 14.2581 2.85716 14.8611 3.88573 15.464C5.068 16.1616 6.23844 16.8591 7.42071 17.5566L8.02367 17.9113C8.04731 17.935 8.04731 17.9586 8.04731 17.9823V23.6808C8.04731 23.7399 8.04731 23.799 8.03549 23.8463Z" fill="#8A92B2"/>
<path id="Path" d="M0.729065 12.2246V12.2128C1.10739 12.0473 1.47389 11.87 1.85222 11.7044C2.33695 11.4798 2.82168 11.267 3.30641 11.0424C3.67291 10.8769 4.05123 10.6995 4.41774 10.534C4.96158 10.2857 5.4936 10.0493 6.03744 9.80099C6.40394 9.63547 6.77045 9.46995 7.14877 9.29261C7.40887 9.17439 7.68079 9.05616 7.94089 8.93793C7.96454 8.92611 8 8.91429 8.01183 8.89064C8.02365 8.89064 8.02365 8.90247 8.01183 8.91429V16.4217C8.01183 16.4571 8 16.4926 8.02365 16.5163C8 16.5517 7.97636 16.5163 7.96454 16.5044C7.85813 16.4453 7.75173 16.3862 7.64532 16.3153C5.36355 14.9675 3.06995 13.6079 0.788178 12.2601C0.776356 12.2483 0.75271 12.2365 0.729065 12.2246Z" fill="#62688F"/>
<path id="Path_2" d="M15.2708 13.6197H15.2826C15.2826 13.6433 15.259 13.667 15.2471 13.6906C13.0718 16.7527 10.8964 19.8266 8.72104 22.8887C8.49641 23.2079 8.25995 23.5271 8.03532 23.8463C8.0235 23.8345 8.0235 23.8227 8.0235 23.8108V23.7399V18.0059V17.8995C8.52005 17.6039 9.00478 17.3202 9.50133 17.0246C11.4166 15.8896 13.3319 14.7665 15.2353 13.6315C15.2471 13.6433 15.259 13.6315 15.2708 13.6197Z" fill="#62688F"/>
<path id="Shape_4" d="M8.02365 8.91427V8.89063V8.81969V0.236442C8.02365 0.200974 8.01182 0.177329 8.03547 0.141861C10.4355 4.1261 12.8355 8.09851 15.2236 12.0827C15.2473 12.1182 15.2828 12.1655 15.2946 12.2128C15.1291 12.1537 14.9754 12.0709 14.8217 12C14.6325 11.9172 14.4315 11.8226 14.2424 11.7399C14.1241 11.6808 13.9941 11.6335 13.8759 11.5744C13.6749 11.4798 13.4739 11.397 13.2729 11.3025C13.1547 11.2552 13.0365 11.196 12.9182 11.1369L12.1379 10.7823C12.0079 10.7231 11.8778 10.664 11.736 10.6049L11.1685 10.3566C11.0502 10.3093 10.932 10.2502 10.8138 10.1911L10.0335 9.83644C9.90345 9.77733 9.7734 9.71821 9.63153 9.6591L9.06404 9.41082C8.93399 9.35171 8.81576 9.2926 8.68571 9.23349C8.46108 9.12708 8.23645 9.02068 8 8.9261C8.03547 8.91427 8.02365 8.91427 8.02365 8.91427Z" fill="#62688F"/>
</g>
</g>
</svg>
