<svg width="315" height="264" viewBox="0 0 315 264" fill="none" xmlns="http://www.w3.org/2000/svg">
<path d="M4.34033 42.3339C5.62793 42.3339 6.54639 41.4418 6.54639 40.163V40.1542C6.54639 38.9282 5.68945 38.0361 4.49854 38.0361C3.92285 38.0361 3.42627 38.269 3.14502 38.6953H3.07471L3.29004 36.5507H6.19482V35.8432H2.66602L2.33203 39.4863H3.01758C3.09668 39.3369 3.19775 39.2138 3.30762 39.1083C3.58008 38.8491 3.94043 38.7216 4.3623 38.7216C5.18408 38.7216 5.77295 39.3237 5.77295 40.1674V40.1762C5.77295 41.0331 5.19287 41.6352 4.34912 41.6352C3.60645 41.6352 3.05713 41.1518 2.98242 40.5453L2.97803 40.5102H2.21777L2.22217 40.5585C2.31445 41.5737 3.1582 42.3339 4.34033 42.3339ZM7.86914 42.1845H8.63379V40.3871L9.07764 39.9565L10.853 42.1845H11.8154L9.61377 39.4379L11.6792 37.4472H10.752L8.7041 39.517H8.63379V35.5663H7.86914V42.1845Z" fill="#B9C1D9"/>
<path d="M4.9248 79.1845H5.69824V77.8705H6.59912V77.163H5.69824V72.8432H4.55127C3.66357 74.166 2.69238 75.7128 1.83545 77.1498V77.8705H4.9248V79.1845ZM2.64404 77.1674V77.1147C3.33398 75.9501 4.16455 74.6406 4.87646 73.5771H4.9292V77.1674H2.64404ZM7.86914 79.1845H8.63379V77.3871L9.07764 76.9565L10.853 79.1845H11.8154L9.61377 76.4379L11.6792 74.4472H10.752L8.7041 76.517H8.63379V72.5663H7.86914V79.1845Z" fill="#B9C1D9"/>
<path d="M4.33594 116.29C5.60596 116.29 6.5376 115.508 6.5376 114.449V114.44C6.5376 113.539 5.90918 112.963 4.98633 112.884V112.867C5.77734 112.7 6.33105 112.164 6.33105 111.381V111.372C6.33105 110.41 5.53564 109.738 4.32715 109.738C3.14062 109.738 2.32324 110.428 2.22217 111.46L2.21777 111.504H2.97803L2.98242 111.46C3.04834 110.819 3.58008 110.423 4.32715 110.423C5.10059 110.423 5.53564 110.806 5.53564 111.469V111.478C5.53564 112.111 5.0083 112.577 4.25244 112.577H3.49219V113.245H4.2876C5.17529 113.245 5.7334 113.68 5.7334 114.457V114.466C5.7334 115.139 5.1665 115.604 4.33594 115.604C3.49219 115.604 2.9165 115.174 2.85498 114.55L2.85059 114.506H2.09033L2.09473 114.559C2.17822 115.56 3.02637 116.29 4.33594 116.29ZM7.86914 116.185H8.63379V114.387L9.07764 113.956L10.853 116.185H11.8154L9.61377 113.438L11.6792 111.447H10.752L8.7041 113.517H8.63379V109.566H7.86914V116.185Z" fill="#B9C1D9"/>
<path d="M2.38916 153.185H6.49365V152.473H3.48779V152.402L4.9292 150.913C6.07617 149.73 6.38818 149.203 6.38818 148.478V148.469C6.38818 147.445 5.54004 146.694 4.43262 146.694C3.21973 146.694 2.34961 147.502 2.34521 148.627L2.354 148.632L3.10986 148.636L3.11426 148.627C3.11426 147.88 3.61963 147.384 4.37988 147.384C5.12695 147.384 5.57959 147.885 5.57959 148.553V148.561C5.57959 149.115 5.34229 149.445 4.53369 150.319L2.38916 152.64V153.185ZM7.86914 153.185H8.63379V151.387L9.07764 150.956L10.853 153.185H11.8154L9.61377 150.438L11.6792 148.447H10.752L8.7041 150.517H8.63379V146.566H7.86914V153.185Z" fill="#B9C1D9"/>
<path d="M5.19727 190.185H5.98828V183.843H5.20166L3.51416 185.056V185.891L5.12695 184.722H5.19727V190.185ZM7.86914 190.185H8.63379V188.387L9.07764 187.956L10.853 190.185H11.8154L9.61377 187.438L11.6792 185.447H10.752L8.7041 187.517H8.63379V183.566H7.86914V190.185Z" fill="#B9C1D9"/>
<path d="M3.2832 227.334C4.70703 227.334 5.52441 226.13 5.52441 224.025C5.52441 221.924 4.69385 220.694 3.2832 220.694C1.86377 220.694 1.0332 221.92 1.0332 224.012C1.0332 226.121 1.85498 227.334 3.2832 227.334ZM3.2832 226.644C2.34717 226.644 1.82861 225.708 1.82861 224.012C1.82861 222.337 2.35596 221.388 3.2832 221.388C4.21045 221.388 4.729 222.329 4.729 224.012C4.729 225.712 4.21924 226.644 3.2832 226.644ZM7.69531 224.517H7.625V220.566H6.86914V227.185H7.625V225.387L8.07764 224.965L9.85303 227.185H10.8154L8.64014 224.477L10.6792 222.447H9.75195L7.69531 224.517Z" fill="#B9C1D9"/>
<path d="M29.7861 16H34.3467V15.209H31.0068V15.1309L32.6084 13.4756C33.8828 12.1621 34.2295 11.5762 34.2295 10.7705V10.7607C34.2295 9.62305 33.2871 8.78809 32.0566 8.78809C30.709 8.78809 29.7422 9.68652 29.7373 10.9365L29.7471 10.9414L30.5869 10.9463L30.5918 10.9365C30.5918 10.1064 31.1533 9.55469 31.998 9.55469C32.8281 9.55469 33.3311 10.1113 33.3311 10.8535V10.8633C33.3311 11.4785 33.0674 11.8447 32.1689 12.8164L29.7861 15.3945V16ZM38.8926 16H39.752V14.54H40.7529V13.7539H39.752V8.9541H38.4775C37.4912 10.4238 36.4121 12.1426 35.46 13.7393V14.54H38.8926V16ZM36.3584 13.7588V13.7002C37.125 12.4062 38.0479 10.9512 38.8389 9.76953H38.8975V13.7588H36.3584ZM42.2227 16H43.1016V12.792H46.9688V16H47.8477V8.9541H46.9688V12.001H43.1016V8.9541H42.2227V16Z" fill="white"/>
<rect x="83" width="40" height="24" rx="5" fill="#2C2C33"/>
<path d="M98.3516 16H99.2305V8.9541H98.3564L96.4814 10.3018V11.2295L98.2734 9.93066H98.3516V16ZM102.839 16H103.669L105.29 10.4385H105.349L106.97 16H107.8L109.719 8.9541H108.801L107.399 14.6816H107.341L105.764 8.9541H104.875L103.298 14.6816H103.239L101.838 8.9541H100.92L102.839 16Z" fill="white"/>
<path d="M162.82 16H163.699V8.9541H162.825L160.95 10.3018V11.2295L162.742 9.93066H162.82V16ZM165.848 16H166.668V10.6191H166.722L168.948 16H169.69L171.917 10.6191H171.971V16H172.791V8.9541H171.771L169.358 14.833H169.28L166.868 8.9541H165.848V16Z" fill="white"/>
<path d="M227.914 16H228.793V8.9541H227.919L226.044 10.3018V11.2295L227.836 9.93066H227.914V16ZM232.88 16H233.759V12.9678L236.259 8.9541H235.258L233.358 12.084H233.28L231.381 8.9541H230.38L232.88 12.9678V16Z" fill="white"/>
<path d="M289.438 16H290.361L291.069 13.9834H293.872L294.58 16H295.503L292.905 8.9541H292.036L289.438 16ZM292.432 10.0918H292.51L293.613 13.2363H291.328L292.432 10.0918ZM296.68 16H297.529V8.64648H296.68V16ZM299.209 16H300.059V8.64648H299.209V16Z" fill="white"/>
<rect x="19" y="36" width="0.996633" height="186" fill="#525766" fill-opacity="0.2"/>
<rect x="55.8754" y="36" width="0.996632" height="186" fill="#525766" fill-opacity="0.2"/>
<rect x="92.7509" y="36" width="0.996635" height="186" fill="#525766" fill-opacity="0.2"/>
<rect x="129.626" y="36" width="0.996635" height="186" fill="#525766" fill-opacity="0.2"/>
<rect x="166.502" y="36" width="0.996643" height="186" fill="#525766" fill-opacity="0.2"/>
<rect x="203.377" y="36" width="0.996643" height="186" fill="#525766" fill-opacity="0.2"/>
<rect x="240.253" y="36" width="0.996643" height="186" fill="#525766" fill-opacity="0.2"/>
<rect x="277.128" y="36" width="0.996674" height="186" fill="#525766" fill-opacity="0.2"/>
<rect x="314" y="221" width="1.00002" height="294" transform="rotate(90 314 221)" fill="#525766" fill-opacity="0.2"/>
<rect x="314" y="184" width="1.00002" height="294" transform="rotate(90 314 184)" fill="#525766" fill-opacity="0.2"/>
<rect x="314" y="147" width="1.00002" height="294" transform="rotate(90 314 147)" fill="#525766" fill-opacity="0.2"/>
<rect x="314" y="110" width="1.00002" height="294" transform="rotate(90 314 110)" fill="#525766" fill-opacity="0.2"/>
<rect x="314" y="73" width="1.00001" height="294" transform="rotate(90 314 73)" fill="#525766" fill-opacity="0.2"/>
<rect x="314" y="36" width="1.00001" height="294" transform="rotate(90 314 36)" fill="#525766" fill-opacity="0.2"/>
<rect x="314.003" y="36" width="0.996643" height="186" fill="#525766" fill-opacity="0.2"/>
<path d="M31.1421 199.753H20V220C20 220.552 20.4477 221 21 221H313C313.552 221 314 220.552 314 220V77L301.693 97.1244C301.245 97.8566 300.143 97.7216 299.886 96.9029L294.786 80.6998C294.655 80.2833 294.269 80 293.832 80H276.112C275.808 80 275.52 80.1386 275.33 80.3766L267.958 89.6234C267.768 89.8613 267.48 90 267.176 90H261.994C261.788 90 261.588 89.9365 261.419 89.8183L252.14 83.3006C251.872 83.1123 251.528 83.0672 251.221 83.1801L241.945 86.5818C241.814 86.63 241.694 86.7051 241.593 86.8025L237.401 90.8646C237.308 90.954 237.234 91.0604 237.182 91.1778L235.318 95.386C235.285 95.4617 235.242 95.5329 235.191 95.598L227.871 104.934C227.819 105 227.759 105.059 227.693 105.11L221.315 110L216.445 113.421C216.37 113.473 216.288 113.515 216.202 113.546L206.476 116.961C206.403 116.987 206.327 117.004 206.25 117.012L197.19 117.969C197 117.989 196.819 118.064 196.669 118.184L192.099 121.853C191.978 121.95 191.882 122.073 191.817 122.214L179.726 148.419C179.562 148.773 179.208 149 178.818 149H173.66C173.54 149 173.42 148.978 173.308 148.936L161.851 144.625C161.636 144.544 161.4 144.54 161.182 144.613L155.798 146.413C155.628 146.47 155.477 146.571 155.36 146.706L142.291 161.763C142.157 161.917 142.073 162.109 142.051 162.312L140.613 175.785C140.598 175.927 140.552 176.064 140.48 176.186L137.621 181.035C137.492 181.253 137.286 181.414 137.043 181.486L123.506 185.489C123.235 185.569 123.01 185.761 122.887 186.017L117.329 197.666C117.226 197.882 117.05 198.053 116.832 198.15L113.92 199.442C113.507 199.625 113.022 199.508 112.737 199.157L105.51 190.227C105.32 189.993 105.035 189.857 104.733 189.857H101.253C100.923 189.857 100.614 190.019 100.428 190.291L87.5691 209.065C87.3826 209.337 87.074 209.5 86.744 209.5H82.9071C82.5278 209.5 82.1812 209.285 82.0121 208.946L79.395 203.694C79.3313 203.566 79.2409 203.453 79.1298 203.363L75.298 200.256C74.9348 199.962 74.416 199.958 74.0489 200.248L67.6719 205.277C67.5626 205.363 67.4365 205.425 67.3016 205.46L59.6334 207.431C59.4585 207.476 59.2746 207.473 59.1014 207.422L51.2667 205.11C51.0275 205.039 50.8233 204.882 50.6942 204.668L42.6183 191.322C42.4929 191.114 42.2964 190.96 42.0654 190.886L39.5117 190.075C39.1007 189.945 38.6523 190.092 38.3993 190.442L31.9519 199.339C31.7638 199.599 31.4627 199.753 31.1421 199.753Z" fill="url(#paint0_linear_6_497)"/>
<path d="M21.756 199.753C21.756 199.753 28.1246 201.329 31.6583 199.753C36.0096 197.812 34.3966 191.603 38.8289 189.856C46.5043 186.832 45.3657 202.736 53.1701 205.407C58.4707 207.222 62.3746 207.647 67.5112 205.407C70.7778 203.983 71.1249 199.936 74.6818 199.753C79.651 199.496 78.327 207.359 82.7487 209.648C93.1089 215.013 94.7967 184.492 105.157 189.856C109.579 192.146 108.309 198.974 113.224 199.753C119.857 200.803 117.537 189.414 123.083 185.615C127.906 182.312 132.919 185.1 137.424 181.374C143.662 176.215 137.437 166.711 143.699 161.582C147.195 158.719 150.078 147.014 158.532 144.5C165.96 142.291 173.986 151.33 177.966 148.5C186.051 142.75 188.634 116.286 198.396 118C205.168 119.189 218.419 112.783 223.809 108.5C236.327 98.5518 235.247 83.6375 251.215 83.4999C255.557 83.4624 260.419 91.3941 264.669 90.4999C271.983 88.9608 270.788 79.0649 278.123 80.5001C280.785 81.021 288.93 79.8784 292.662 79.3039C293.728 79.1398 294.738 79.8341 294.963 80.8887C296.071 86.0606 299.204 99.9734 300.546 98.4999C306.094 92.4105 307.024 84.4999 314 77.4999" stroke="#40BF6A" stroke-width="2" stroke-linecap="round"/>
<path d="M34.3379 243V236.659H33.4194L31.2485 241.95H31.1782L29.0073 236.659H28.0889V243H28.8271V238.157H28.8799L30.8794 243H31.5474L33.5469 238.157H33.5996V243H34.3379ZM37.8052 243.083C39.1543 243.083 39.9893 242.152 39.9893 240.631C39.9893 239.106 39.1543 238.179 37.8052 238.179C36.4561 238.179 35.6211 239.106 35.6211 240.631C35.6211 242.152 36.4561 243.083 37.8052 243.083ZM37.8052 242.402C36.9087 242.402 36.4033 241.752 36.4033 240.631C36.4033 239.506 36.9087 238.86 37.8052 238.86C38.7017 238.86 39.207 239.506 39.207 240.631C39.207 241.752 38.7017 242.402 37.8052 242.402ZM41.1758 243H41.9316V240.196C41.9316 239.366 42.4194 238.86 43.1753 238.86C43.9312 238.86 44.2915 239.265 44.2915 240.117V243H45.0474V239.933C45.0474 238.808 44.4541 238.179 43.3906 238.179C42.6655 238.179 42.2041 238.487 41.9668 239.01H41.8965V238.263H41.1758V243Z" fill="#B9C1D9"/>
<path d="M33.0195 261H34.0742V252.545H33.0254L30.7754 254.162V255.275L32.9258 253.717H33.0195V261ZM39.2949 261.199C41.0117 261.199 42.2363 260.01 42.2363 258.305V258.293C42.2363 256.658 41.0937 255.469 39.5059 255.469C38.7383 255.469 38.0762 255.779 37.7012 256.348H37.6074L37.8945 253.488H41.7676V252.545H37.0625L36.6172 257.402H37.5312C37.6367 257.203 37.7715 257.039 37.918 256.898C38.2812 256.553 38.7617 256.383 39.3242 256.383C40.4199 256.383 41.2051 257.186 41.2051 258.311V258.322C41.2051 259.465 40.4316 260.268 39.3066 260.268C38.3164 260.268 37.584 259.623 37.4844 258.814L37.4785 258.768H36.4648L36.4707 258.832C36.5937 260.186 37.7187 261.199 39.2949 261.199Z" fill="#575B66"/>
<path d="M70.8121 243V237.371H72.8555V236.659H67.9776V237.371H70.0211V243H70.8121ZM77.1534 238.263H76.3975V241.066C76.3975 241.897 75.9405 242.394 75.1055 242.394C74.3497 242.394 74.0333 241.998 74.0333 241.146V238.263H73.2774V241.33C73.2774 242.451 73.8311 243.083 74.8946 243.083C75.6197 243.083 76.1251 242.785 76.3624 242.257H76.4327V243H77.1534V238.263ZM80.4669 238.847C81.2183 238.847 81.7193 239.401 81.7369 240.24H79.1265C79.1837 239.401 79.711 238.847 80.4669 238.847ZM81.7149 241.774C81.5172 242.191 81.1041 242.416 80.4932 242.416C79.689 242.416 79.1661 241.822 79.1265 240.886V240.851H82.5323V240.561C82.5323 239.089 81.7545 238.179 80.4756 238.179C79.1749 238.179 78.3399 239.146 78.3399 240.636C78.3399 242.134 79.1617 243.083 80.4756 243.083C81.5128 243.083 82.251 242.583 82.4708 241.774H81.7149Z" fill="#B9C1D9"/>
<path d="M71.6939 261H72.7486V252.545H71.6998L69.4498 254.162V255.275L71.6002 253.717H71.6939V261ZM78.1802 261.199C79.8853 261.199 81.1392 259.975 81.1392 258.287V258.275C81.1392 256.652 79.9556 255.445 78.3677 255.445C77.2252 255.445 76.4283 256.061 76.1177 256.752H76.0064C76.0064 256.688 76.0064 256.617 76.0123 256.553C76.0767 254.789 76.7037 253.289 78.2388 253.289C79.0943 253.289 79.6861 253.729 79.9439 254.438L79.9673 254.502H81.0279L81.0103 254.426C80.7232 253.178 79.6685 252.346 78.2505 252.346C76.1998 252.346 74.9986 254.033 74.9986 256.916V256.928C74.9986 260.109 76.6334 261.199 78.1802 261.199ZM76.2584 258.275V258.27C76.2584 257.168 77.0904 256.365 78.1861 256.365C79.2818 256.365 80.0787 257.174 80.0787 258.299V258.311C80.0787 259.406 79.2291 260.268 78.1685 260.268C77.0962 260.268 76.2584 259.389 76.2584 258.275Z" fill="#575B66"/>
<path d="M109.43 237.995H109.483L110.942 243H111.689L113.416 236.659H112.589L111.328 241.813H111.276L109.856 236.659H109.056L107.637 241.813H107.584L106.323 236.659H105.497L107.224 243H107.971L109.43 237.995ZM115.973 238.847C116.725 238.847 117.226 239.401 117.243 240.24H114.633C114.69 239.401 115.217 238.847 115.973 238.847ZM117.221 241.774C117.024 242.191 116.61 242.416 116 242.416C115.195 242.416 114.672 241.822 114.633 240.886V240.851H118.039V240.561C118.039 239.089 117.261 238.179 115.982 238.179C114.681 238.179 113.846 239.146 113.846 240.636C113.846 242.134 114.668 243.083 115.982 243.083C117.019 243.083 117.757 242.583 117.977 241.774H117.221ZM120.979 243.083C121.633 243.083 122.196 242.771 122.495 242.244H122.565V243H123.286V236.382H122.53V239.01H122.464C122.196 238.491 121.638 238.179 120.979 238.179C119.775 238.179 118.988 239.146 118.988 240.631C118.988 242.121 119.766 243.083 120.979 243.083ZM121.154 238.86C122.011 238.86 122.547 239.546 122.547 240.631C122.547 241.726 122.016 242.402 121.154 242.402C120.289 242.402 119.77 241.739 119.77 240.631C119.77 239.528 120.293 238.86 121.154 238.86Z" fill="#B9C1D9"/>
<path d="M111.384 261H112.439V252.545H111.39L109.14 254.162V255.275L111.29 253.717H111.384V261ZM115.234 261H116.341L120.103 253.523V252.545H114.507V253.488H119.03V253.57L115.234 261Z" fill="#575B66"/>
<path d="M149.453 243V237.371H151.496V236.659H146.618V237.371H148.662V243H149.453ZM152.665 243H153.421V240.196C153.421 239.396 153.887 238.86 154.735 238.86C155.451 238.86 155.829 239.278 155.829 240.117V243H156.585V239.933C156.585 238.821 155.952 238.179 154.95 238.179C154.225 238.179 153.729 238.487 153.491 239.01H153.421V236.382H152.665V243ZM161.797 238.263H161.041V241.066C161.041 241.897 160.584 242.394 159.749 242.394C158.993 242.394 158.677 241.998 158.677 241.146V238.263H157.921V241.33C157.921 242.451 158.475 243.083 159.538 243.083C160.263 243.083 160.769 242.785 161.006 242.257H161.076V243H161.797V238.263Z" fill="#B9C1D9"/>
<path d="M150.754 261H151.808V252.545H150.759L148.509 254.162V255.275L150.66 253.717H150.754V261ZM157.14 261.141C158.933 261.141 160.211 260.133 160.211 258.715V258.703C160.211 257.66 159.478 256.793 158.394 256.541V256.518C159.32 256.23 159.906 255.527 159.906 254.637V254.625C159.906 253.348 158.74 252.404 157.14 252.404C155.541 252.404 154.375 253.348 154.375 254.625V254.637C154.375 255.527 154.961 256.23 155.886 256.518V256.541C154.802 256.793 154.07 257.66 154.07 258.703V258.715C154.07 260.133 155.347 261.141 157.14 261.141ZM157.14 256.125C156.121 256.125 155.424 255.545 155.424 254.725V254.713C155.424 253.893 156.121 253.312 157.14 253.312C158.16 253.312 158.857 253.893 158.857 254.713V254.725C158.857 255.545 158.16 256.125 157.14 256.125ZM157.14 260.221C155.974 260.221 155.142 259.564 155.142 258.65V258.639C155.142 257.713 155.968 257.051 157.14 257.051C158.312 257.051 159.138 257.713 159.138 258.639V258.65C159.138 259.564 158.306 260.221 157.14 260.221Z" fill="#575B66"/>
<path d="M184.846 243V240.253H187.654V239.55H184.846V237.371H187.905V236.659H184.055V243H184.846ZM189.109 243H189.865V240.064C189.865 239.396 190.387 238.913 191.108 238.913C191.258 238.913 191.53 238.939 191.592 238.957V238.201C191.495 238.188 191.337 238.179 191.214 238.179C190.585 238.179 190.04 238.504 189.9 238.966H189.829V238.263H189.109V243ZM192.554 243H193.31V238.263H192.554V243ZM192.932 237.349C193.222 237.349 193.459 237.111 193.459 236.821C193.459 236.531 193.222 236.294 192.932 236.294C192.642 236.294 192.405 236.531 192.405 236.821C192.405 237.111 192.642 237.349 192.932 237.349Z" fill="#B9C1D9"/>
<path d="M185.051 261H186.106V252.545H185.057L182.807 254.162V255.275L184.957 253.717H185.051V261ZM191.315 252.346C189.61 252.346 188.356 253.57 188.356 255.258V255.27C188.356 256.893 189.539 258.1 191.127 258.1C192.27 258.1 193.067 257.484 193.377 256.793H193.489C193.489 256.857 193.489 256.928 193.483 256.992C193.418 258.756 192.791 260.256 191.256 260.256C190.401 260.256 189.809 259.816 189.551 259.107L189.528 259.043H188.467L188.485 259.119C188.772 260.367 189.826 261.199 191.244 261.199C193.295 261.199 194.496 259.512 194.496 256.629V256.617C194.496 253.436 192.862 252.346 191.315 252.346ZM191.309 257.18C190.213 257.18 189.416 256.371 189.416 255.246V255.234C189.416 254.139 190.266 253.277 191.326 253.277C192.399 253.277 193.237 254.156 193.237 255.27V255.275C193.237 256.377 192.405 257.18 191.309 257.18Z" fill="#575B66"/>
<path d="M214.947 241.343C215.03 242.438 215.957 243.149 217.302 243.149C218.752 243.149 219.671 242.407 219.671 241.242C219.671 240.311 219.143 239.801 217.829 239.471L217.166 239.295C216.291 239.071 215.944 238.786 215.944 238.289C215.944 237.647 216.502 237.226 217.346 237.226C218.137 237.226 218.673 237.612 218.783 238.263H219.578C219.513 237.239 218.599 236.509 217.372 236.509C216.032 236.509 215.131 237.239 215.131 238.315C215.131 239.216 215.628 239.735 216.775 240.025L217.588 240.236C218.462 240.456 218.858 240.798 218.858 241.339C218.858 241.967 218.229 242.429 217.377 242.429C216.476 242.429 215.843 242.007 215.746 241.343H214.947ZM222.351 242.42C221.802 242.42 221.393 242.139 221.393 241.655C221.393 241.181 221.71 240.93 222.431 240.882L223.705 240.798V241.233C223.705 241.91 223.129 242.42 222.351 242.42ZM222.211 243.083C222.844 243.083 223.362 242.807 223.67 242.301H223.74V243H224.461V239.757C224.461 238.772 223.815 238.179 222.659 238.179C221.648 238.179 220.901 238.68 220.8 239.44H221.565C221.67 239.067 222.066 238.852 222.633 238.852C223.34 238.852 223.705 239.172 223.705 239.757V240.188L222.338 240.271C221.235 240.337 220.611 240.825 220.611 241.673C220.611 242.539 221.292 243.083 222.211 243.083ZM226.175 237.037V238.263H225.41V238.896H226.175V241.77C226.175 242.675 226.566 243.035 227.541 243.035C227.691 243.035 227.836 243.018 227.985 242.991V242.354C227.845 242.367 227.77 242.372 227.634 242.372C227.141 242.372 226.931 242.134 226.931 241.576V238.896H227.985V238.263H226.931V237.037H226.175Z" fill="#B9C1D9"/>
<path d="M214.972 261H220.444V260.051H216.436V259.957L218.358 257.971C219.888 256.395 220.304 255.691 220.304 254.725V254.713C220.304 253.348 219.173 252.346 217.696 252.346C216.079 252.346 214.919 253.424 214.913 254.924L214.925 254.93L215.933 254.936L215.938 254.924C215.938 253.928 216.612 253.266 217.626 253.266C218.622 253.266 219.225 253.934 219.225 254.824V254.836C219.225 255.574 218.909 256.014 217.831 257.18L214.972 260.273V261ZM225.044 261.199C226.913 261.199 228.038 259.494 228.038 256.775V256.764C228.038 254.045 226.913 252.346 225.044 252.346C223.175 252.346 222.061 254.045 222.061 256.764V256.775C222.061 259.494 223.175 261.199 225.044 261.199ZM225.044 260.279C223.831 260.279 223.122 258.932 223.122 256.775V256.764C223.122 254.607 223.831 253.271 225.044 253.271C226.257 253.271 226.977 254.607 226.977 256.764V256.775C226.977 258.932 226.257 260.279 225.044 260.279Z" fill="#575B66"/>
<path d="M250.594 241.343C250.678 242.438 251.605 243.149 252.95 243.149C254.4 243.149 255.318 242.407 255.318 241.242C255.318 240.311 254.791 239.801 253.477 239.471L252.813 239.295C251.939 239.071 251.592 238.786 251.592 238.289C251.592 237.647 252.15 237.226 252.994 237.226C253.785 237.226 254.321 237.612 254.431 238.263H255.226C255.16 237.239 254.246 236.509 253.02 236.509C251.68 236.509 250.779 237.239 250.779 238.315C250.779 239.216 251.275 239.735 252.422 240.025L253.235 240.236C254.11 240.456 254.505 240.798 254.505 241.339C254.505 241.967 253.877 242.429 253.024 242.429C252.123 242.429 251.491 242.007 251.394 241.343H250.594ZM260.372 238.263H259.616V241.066C259.616 241.897 259.159 242.394 258.324 242.394C257.568 242.394 257.252 241.998 257.252 241.146V238.263H256.496V241.33C256.496 242.451 257.05 243.083 258.113 243.083C258.838 243.083 259.344 242.785 259.581 242.257H259.651V243H260.372V238.263ZM261.796 243H262.552V240.196C262.552 239.366 263.039 238.86 263.795 238.86C264.551 238.86 264.912 239.265 264.912 240.117V243H265.667V239.933C265.667 238.808 265.074 238.179 264.011 238.179C263.286 238.179 262.824 238.487 262.587 239.01H262.517V238.263H261.796V243Z" fill="#B9C1D9"/>
<path d="M252.753 261H258.226V260.051H254.218V259.957L256.14 257.971C257.669 256.395 258.085 255.691 258.085 254.725V254.713C258.085 253.348 256.955 252.346 255.478 252.346C253.861 252.346 252.701 253.424 252.695 254.924L252.707 254.93L253.714 254.936L253.72 254.924C253.72 253.928 254.394 253.266 255.408 253.266C256.404 253.266 257.007 253.934 257.007 254.824V254.836C257.007 255.574 256.691 256.014 255.613 257.18L252.753 260.273V261ZM262.064 261H263.119V252.545H262.07L259.82 254.162V255.275L261.97 253.717H262.064V261Z" fill="#575B66"/>
<path d="M295.338 243V236.659H294.419L292.249 241.95H292.178L290.007 236.659H289.089V243H289.827V238.157H289.88L291.879 243H292.547L294.547 238.157H294.6V243H295.338ZM298.805 243.083C300.154 243.083 300.989 242.152 300.989 240.631C300.989 239.106 300.154 238.179 298.805 238.179C297.456 238.179 296.621 239.106 296.621 240.631C296.621 242.152 297.456 243.083 298.805 243.083ZM298.805 242.402C297.909 242.402 297.403 241.752 297.403 240.631C297.403 239.506 297.909 238.86 298.805 238.86C299.702 238.86 300.207 239.506 300.207 240.631C300.207 241.752 299.702 242.402 298.805 242.402ZM302.176 243H302.932V240.196C302.932 239.366 303.419 238.86 304.175 238.86C304.931 238.86 305.292 239.265 305.292 240.117V243H306.047V239.933C306.047 238.808 305.454 238.179 304.391 238.179C303.666 238.179 303.204 238.487 302.967 239.01H302.896V238.263H302.176V243Z" fill="#B9C1D9"/>
<path d="M291.201 261H296.674V260.051H292.666V259.957L294.588 257.971C296.117 256.395 296.533 255.691 296.533 254.725V254.713C296.533 253.348 295.402 252.346 293.926 252.346C292.309 252.346 291.148 253.424 291.143 254.924L291.154 254.93L292.162 254.936L292.168 254.924C292.168 253.928 292.842 253.266 293.855 253.266C294.852 253.266 295.455 253.934 295.455 254.824V254.836C295.455 255.574 295.139 256.014 294.061 257.18L291.201 260.273V261ZM298.443 261H303.916V260.051H299.908V259.957L301.83 257.971C303.359 256.395 303.775 255.691 303.775 254.725V254.713C303.775 253.348 302.645 252.346 301.168 252.346C299.551 252.346 298.391 253.424 298.385 254.924L298.397 254.93L299.404 254.936L299.41 254.924C299.41 253.928 300.084 253.266 301.098 253.266C302.094 253.266 302.697 253.934 302.697 254.824V254.836C302.697 255.574 302.381 256.014 301.303 257.18L298.443 260.273V261Z" fill="#575B66"/>
<defs>
<linearGradient id="paint0_linear_6_497" x1="167" y1="81" x2="167" y2="221" gradientUnits="userSpaceOnUse">
<stop stop-color="#40BF6A" stop-opacity="0.3"/>
<stop offset="1" stop-color="#40BF6A" stop-opacity="0"/>
</linearGradient>
</defs>
</svg>
