<svg width="34" height="34" viewBox="0 0 34 34" fill="none" xmlns="http://www.w3.org/2000/svg">
<g id="LTC" clip-path="url(#clip0_4_174)">
<path id="Vector" d="M16.9999 32.1601C25.3725 32.1601 32.1599 25.3727 32.1599 17C32.1599 8.62735 25.3725 1.83997 16.9999 1.83997C8.62722 1.83997 1.83984 8.62735 1.83984 17C1.83984 25.3727 8.62722 32.1601 16.9999 32.1601Z" fill="white"/>
<path id="Vector_2" d="M17 0C13.6377 0 10.3509 0.997033 7.55529 2.86502C4.75966 4.733 2.58073 7.38804 1.29404 10.4944C0.0073467 13.6007 -0.32931 17.0189 0.326639 20.3165C0.982588 23.6142 2.60168 26.6433 4.97917 29.0208C7.35667 31.3983 10.3858 33.0174 13.6835 33.6733C16.9811 34.3293 20.3993 33.9926 23.5056 32.7059C26.6119 31.4193 29.267 29.2403 31.135 26.4447C33.003 23.6491 34 20.3623 34 17C34.0065 14.774 33.5745 12.5685 32.7286 10.5095C31.8828 8.45048 30.6396 6.57822 29.0702 4.99962C27.5008 3.42103 25.6358 2.16701 23.5817 1.30917C21.5277 0.451334 19.3248 0.00647716 17.0988 0H17ZM17.2881 17.5763L15.5181 23.5448H24.9855C25.0482 23.5426 25.1107 23.5528 25.1695 23.5748C25.2283 23.5967 25.2821 23.6301 25.328 23.6729C25.3739 23.7157 25.4109 23.7672 25.4368 23.8243C25.4628 23.8814 25.4773 23.9431 25.4794 24.0058V24.1622L24.6562 27.0024C24.6199 27.1367 24.539 27.2547 24.4268 27.337C24.3146 27.4193 24.1777 27.461 24.0387 27.4552H9.54963L11.9782 19.1816L9.26149 20.0048L9.87892 18.1114L12.5956 17.2881L16.0121 5.68039C16.0497 5.54683 16.1309 5.42969 16.2428 5.34764C16.3547 5.26558 16.4908 5.22333 16.6295 5.2276H20.293C20.3557 5.2254 20.4182 5.23559 20.477 5.25757C20.5358 5.27955 20.5896 5.31291 20.6355 5.35573C20.6814 5.39854 20.7184 5.44998 20.7443 5.5071C20.7703 5.56422 20.7848 5.6259 20.7869 5.68862V5.84504L17.9056 15.6416L20.6223 14.8184L20.046 16.7942L17.2881 17.5763Z" fill="#181F2C"/>
</g>
<defs>
<clipPath id="clip0_4_174">
<rect width="34" height="34" fill="white"/>
</clipPath>
</defs>
</svg>
