<svg width="26" height="22" viewBox="0 0 26 22" fill="none" xmlns="http://www.w3.org/2000/svg">
<g id="Layer 2">
<g id="Layer 1">
<path id="Vector" d="M22.1912 0.166687H25.949L18.1287 7.90981C15.2966 10.7124 10.705 10.7124 7.87091 7.90981L0.0475464 0.166687H3.80841L9.74981 6.04868C10.6155 6.90186 11.7821 7.38013 12.9975 7.38013C14.213 7.38013 15.3796 6.90186 16.2452 6.04868L22.1912 0.166687Z" fill="white"/>
<path id="Vector_2" d="M3.76035 21.6979H0L7.87109 13.907C10.7032 11.1044 15.2948 11.1044 18.1289 13.907L26 21.6979H22.2422L16.25 15.7682C15.3843 14.915 14.2177 14.4367 13.0023 14.4367C11.7869 14.4367 10.6202 14.915 9.75457 15.7682L3.76035 21.6979Z" fill="white"/>
</g>
</g>
</svg>
