<svg width="20" height="16" viewBox="0 0 20 16" fill="none" xmlns="http://www.w3.org/2000/svg">
<path fill-rule="evenodd" clip-rule="evenodd" d="M1.39836 6.47353H16.2048C16.3904 6.47353 16.5664 6.54713 16.6944 6.67833L19.0368 9.03673C19.4688 9.47193 19.1616 10.2143 18.5472 10.2143H3.74076C3.55516 10.2143 3.37916 10.1407 3.25116 10.0095L0.908763 7.65113C0.473563 7.21593 0.783963 6.47353 1.39836 6.47353ZM0.908763 3.34714L3.25116 0.988735C3.38236 0.857535 3.55836 0.783936 3.74076 0.783936H18.544C19.1584 0.783936 19.4688 1.52634 19.0336 1.96153L16.6944 4.31993C16.5632 4.45113 16.3872 4.52473 16.2048 4.52473H1.39836C0.783963 4.52473 0.473563 3.78234 0.908763 3.34714ZM19.0336 13.3407L16.6912 15.6991C16.56 15.8303 16.384 15.9039 16.2016 15.9039H1.39836C0.783963 15.9039 0.473563 15.1615 0.908763 14.7263L3.25116 12.3679C3.38236 12.2367 3.55836 12.1631 3.74076 12.1631H18.544C19.1584 12.1631 19.4688 12.9055 19.0336 13.3407Z" fill="url(#paint0_linear_228_79)"/>
<defs>
<linearGradient id="paint0_linear_228_79" x1="1.7606" y1="16.5545" x2="18.1817" y2="0.133362" gradientUnits="userSpaceOnUse">
<stop stop-color="#CB4EE8"/>
<stop offset="1" stop-color="#10F4B1"/>
</linearGradient>
</defs>
</svg>
