<svg width="85" height="35" viewBox="0 0 85 35" fill="none" xmlns="http://www.w3.org/2000/svg">
<g id="Group 7">
<path id="Vector 3.1" d="M2.72546 31.4496L1 29.8571V34C1 34.5523 1.44772 35 2 35H84C84.5523 35 85 34.5523 85 34V18.0714L83.6739 22.4775C83.6135 22.6779 83.4918 22.8543 83.3259 22.982L82.2211 23.8316C81.6542 24.2677 80.826 23.9848 80.6443 23.293L78.9527 16.8531C78.8372 16.4136 78.4399 16.1071 77.9855 16.1071H77.2743C76.8122 16.1071 76.4102 15.7905 76.3021 15.3412L75.5905 12.3859C75.3987 11.5896 74.338 11.4263 73.9156 12.128C73.7499 12.4031 73.4522 12.5714 73.131 12.5714H69.5731C69.2783 12.5714 68.9985 12.4413 68.8084 12.2159L68.1986 11.4922C67.7114 10.9141 66.7837 11.0648 66.5046 11.7674L65.1481 15.1816C64.7893 16.0848 63.4833 15.9971 63.2484 15.0541L61.2414 6.99666C61.1899 6.79001 61.0738 6.60519 60.91 6.46912L58.7054 4.63795C58.4653 4.4385 58.1458 4.36262 57.8416 4.4328L55.686 4.93015C55.236 5.03399 54.7734 4.81612 54.5668 4.40304L53.2506 1.77112C52.8837 1.03738 51.838 1.03329 51.4653 1.76414L49.7067 5.21318C49.4056 5.80355 48.5553 5.78337 48.2826 5.17938C47.9993 4.55177 47.1046 4.56174 46.8353 5.19551L45.736 7.78246C45.3758 8.63012 44.1583 8.58139 43.867 7.70766L42.3329 3.10633C42.0208 2.17006 40.685 2.20401 40.4208 3.15492L38.6629 9.48198C38.5427 9.91477 38.1486 10.2143 37.6994 10.2143H37.2217C36.7779 10.2143 36.3871 10.5068 36.2621 10.9327L32.8321 22.6209C32.8001 22.73 32.7498 22.8328 32.6832 22.9249L29.0011 28.0223C28.6177 28.5531 27.8361 28.5783 27.4193 28.0734L26.4486 26.8976C26.1665 26.5559 25.6932 26.4406 25.2856 26.6142L22.809 27.6691C22.4835 27.8078 22.2555 28.1081 22.2094 28.4589L21.8305 31.3445C21.7651 31.8422 21.3409 32.2143 20.839 32.2143H19.1717C18.8146 32.2143 18.4845 32.0238 18.3059 31.7146L16.0132 27.7473C15.6378 27.0977 14.7073 27.0775 14.3041 27.7101L11.6678 31.8462C11.304 32.4171 10.4899 32.469 10.0564 31.949L7.50029 28.8822C7.08233 28.3807 6.30376 28.4077 5.9215 28.9369L4.2143 31.3003C3.86317 31.7864 3.16613 31.8563 2.72546 31.4496Z" fill="url(#paint0_linear_2_573)"/>
<path id="Vector 3.2" d="M1 29.8571L2.72546 31.4496C3.16613 31.8563 3.86317 31.7864 4.2143 31.3003L5.9215 28.9369C6.30376 28.4077 7.08233 28.3807 7.50029 28.8822L10.0564 31.949C10.4899 32.469 11.304 32.4171 11.6678 31.8462L14.3041 27.7101C14.7073 27.0775 15.6378 27.0977 16.0132 27.7473L18.3059 31.7146C18.4845 32.0238 18.8146 32.2143 19.1717 32.2143H20.839C21.3409 32.2143 21.7651 31.8422 21.8305 31.3445L22.2094 28.4589C22.2555 28.1081 22.4835 27.8078 22.809 27.6691L25.2856 26.6142C25.6932 26.4406 26.1665 26.5559 26.4486 26.8976L27.4193 28.0734C27.8361 28.5783 28.6177 28.5531 29.0011 28.0223L32.6832 22.9249C32.7498 22.8328 32.8001 22.73 32.8321 22.6209L36.2621 10.9327C36.3871 10.5068 36.7779 10.2143 37.2217 10.2143H37.6994C38.1486 10.2143 38.5427 9.91477 38.6629 9.48198L40.4208 3.15492C40.685 2.20401 42.0208 2.17006 42.3329 3.10633L43.867 7.70766C44.1583 8.58139 45.3758 8.63012 45.736 7.78246L46.8353 5.19551C47.1046 4.56174 47.9993 4.55177 48.2826 5.17938V5.17938C48.5553 5.78337 49.4056 5.80355 49.7067 5.21318L51.4653 1.76414C51.838 1.03329 52.8837 1.03738 53.2506 1.77112L54.5668 4.40304C54.7734 4.81612 55.236 5.03399 55.686 4.93015L57.8416 4.4328C58.1458 4.36262 58.4653 4.4385 58.7054 4.63795L60.91 6.46912C61.0738 6.60519 61.1899 6.79001 61.2414 6.99666L63.2484 15.0541C63.4833 15.9971 64.7893 16.0848 65.1481 15.1816L66.5046 11.7674C66.7837 11.0648 67.7114 10.9141 68.1986 11.4922L68.8084 12.2159C68.9985 12.4413 69.2783 12.5714 69.5731 12.5714H73.131C73.4522 12.5714 73.7499 12.4031 73.9156 12.128V12.128C74.338 11.4263 75.3987 11.5896 75.5905 12.3859L76.3021 15.3412C76.4102 15.7905 76.8122 16.1071 77.2743 16.1071H77.9855C78.4399 16.1071 78.8372 16.4136 78.9527 16.8531L80.6443 23.293C80.826 23.9848 81.6542 24.2677 82.2211 23.8316L83.2802 23.0171C83.4741 22.868 83.6065 22.6531 83.6527 22.413L84.5 18" stroke="#40BF6A" stroke-linecap="round"/>
</g>
<defs>
<linearGradient id="paint0_linear_2_573" x1="43" y1="0" x2="43" y2="35" gradientUnits="userSpaceOnUse">
<stop stop-color="#40BF6A" stop-opacity="0.2"/>
<stop offset="1" stop-color="#40BF6A" stop-opacity="0"/>
</linearGradient>
</defs>
</svg>
